<svg width="96" height="31" viewBox="0 0 96 31" fill="none" xmlns="http://www.w3.org/2000/svg">
<path d="M3.10449 26.8356H1.87408V30.2086H1.19524V26.8356H0.00726318V26.284H3.10449V26.8356Z" fill="white"/>
<path d="M5.0561 28.7024H4.2924V30.2086H3.61356V26.284H4.99246C5.43795 26.284 5.79858 26.3901 6.03194 26.581C6.2865 26.7931 6.39257 27.0689 6.39257 27.4508C6.39257 27.7053 6.32893 27.9387 6.20165 28.1084C6.07436 28.2781 5.90465 28.4266 5.6713 28.5114L6.54107 30.1449V30.1873H5.8198L5.0561 28.7024ZM4.2924 28.1508H4.99246C5.22581 28.1508 5.39552 28.0872 5.5228 27.9811C5.65009 27.875 5.71373 27.7053 5.71373 27.5144C5.71373 27.3023 5.65009 27.1325 5.54402 27.0265C5.43795 26.9204 5.24702 26.8568 5.01367 26.8568H4.2924V28.1508Z" fill="white"/>
<path d="M9.25648 29.2964H7.75029L7.43208 30.2086H6.73203L8.217 26.284H8.8322L10.3172 30.2086H9.61711L9.25648 29.2964ZM7.92 28.7448H9.04434L8.47156 27.1113L7.92 28.7448Z" fill="white"/>
<path d="M13.6478 28.9357C13.6053 29.36 13.4568 29.6782 13.1811 29.9116C12.9053 30.1449 12.5446 30.2722 12.0992 30.2722C11.7809 30.2722 11.5052 30.2086 11.2718 30.0601C11.0385 29.9116 10.8475 29.6994 10.7203 29.4236C10.593 29.1479 10.5293 28.8296 10.5081 28.469V28.1084C10.5081 27.7477 10.5718 27.4083 10.699 27.1325C10.8263 26.8568 11.0173 26.6446 11.2718 26.4749C11.5264 26.3264 11.8022 26.2416 12.1204 26.2416C12.5446 26.2416 12.9053 26.3688 13.1599 26.6022C13.4144 26.8355 13.5841 27.175 13.6266 27.5992H12.9477C12.9053 27.3235 12.8416 27.1113 12.6931 26.984C12.5659 26.8568 12.3749 26.7931 12.1204 26.7931C11.8234 26.7931 11.59 26.8992 11.4415 27.1113C11.293 27.3235 11.2082 27.6417 11.2082 28.066V28.4054C11.2082 28.8297 11.293 29.1479 11.4415 29.3812C11.59 29.5933 11.8234 29.7206 12.0992 29.7206C12.3749 29.7206 12.5659 29.657 12.6931 29.5509C12.8204 29.4449 12.9053 29.2327 12.9477 28.9569H13.6478V28.9357Z" fill="white"/>
<path d="M15.3874 28.5114L14.9419 28.9782V30.2086H14.263V26.284H14.9419V28.1296L15.3237 27.6629L16.4693 26.284H17.2966L15.8329 28.0235L17.3603 30.2086H16.5541L15.3874 28.5114Z" fill="white"/>
<path d="M24.4457 28.9357C24.4032 29.36 24.2547 29.6782 23.9789 29.9116C23.7032 30.1449 23.3425 30.2722 22.897 30.2722C22.5788 30.2722 22.3031 30.2086 22.0697 30.0601C21.8363 29.9116 21.6454 29.6994 21.5181 29.4236C21.3909 29.1479 21.3272 28.8296 21.306 28.469V28.1084C21.306 27.7477 21.3696 27.4083 21.4969 27.1325C21.6242 26.8568 21.8151 26.6446 22.0697 26.4749C22.3243 26.3264 22.6 26.2416 22.9183 26.2416C23.3425 26.2416 23.7032 26.3688 23.9577 26.6022C24.2123 26.8355 24.382 27.175 24.4244 27.5992H23.7456C23.7032 27.3235 23.6395 27.1113 23.491 26.984C23.3637 26.8568 23.1728 26.7931 22.9183 26.7931C22.6213 26.7931 22.3879 26.8992 22.2394 27.1113C22.0909 27.3235 22.0061 27.6417 22.0061 28.066V28.4054C22.0061 28.8297 22.0909 29.1479 22.2394 29.3812C22.3879 29.5933 22.6213 29.7206 22.897 29.7206C23.1728 29.7206 23.3637 29.657 23.491 29.5509C23.6183 29.4449 23.7032 29.2327 23.7456 28.9569H24.4457V28.9357Z" fill="white"/>
<path d="M28.1793 28.3629C28.1793 28.7448 28.1156 29.0842 27.9883 29.3812C27.861 29.6782 27.6701 29.8903 27.4156 30.0388C27.161 30.1873 26.8852 30.2722 26.567 30.2722C26.2488 30.2722 25.973 30.1873 25.7184 30.0388C25.4639 29.8903 25.273 29.657 25.1457 29.3812C25.0184 29.1054 24.9335 28.766 24.9335 28.3842V28.172C24.9335 27.7902 24.9972 27.4507 25.1457 27.1538C25.273 26.8568 25.4639 26.6446 25.7184 26.4749C25.973 26.3264 26.2488 26.2416 26.567 26.2416C26.8852 26.2416 27.161 26.3264 27.4156 26.4749C27.6701 26.6234 27.861 26.8568 27.9883 27.1325C28.1156 27.4295 28.2005 27.7477 28.2005 28.1296V28.3629H28.1793ZM27.5004 28.1508C27.5004 27.7265 27.4156 27.3871 27.2458 27.1538C27.0761 26.9204 26.8428 26.8143 26.5458 26.8143C26.2488 26.8143 26.0154 26.9204 25.8457 27.1538C25.676 27.3871 25.5912 27.7053 25.5912 28.1296V28.3629C25.5912 28.7872 25.676 29.1266 25.8457 29.36C26.0154 29.5934 26.2488 29.7206 26.5458 29.7206C26.8428 29.7206 27.0761 29.6146 27.2458 29.3812C27.4156 29.1479 27.4792 28.8084 27.4792 28.3842V28.1508H27.5004Z" fill="white"/>
<path d="M31.9553 30.2086H31.2764L29.5369 27.4295V30.2086H28.858V26.284H29.5369L31.2976 29.063V26.284H31.9765V30.2086H31.9553Z" fill="white"/>
<path d="M35.5193 26.8356H34.2889V30.2086H33.61V26.8356H32.4008V26.284H35.4981V26.8356H35.5193Z" fill="white"/>
<path d="M37.471 28.7024H36.7073V30.2086H36.0284V26.284H37.4073C37.8528 26.284 38.2135 26.3901 38.4468 26.581C38.7014 26.7931 38.8075 27.0689 38.8075 27.4508C38.8075 27.7053 38.7438 27.9387 38.6165 28.1084C38.4893 28.2781 38.3195 28.4266 38.0862 28.5114L38.956 30.1449V30.1873H38.2347L37.471 28.7024ZM36.7073 28.1508H37.4073C37.6407 28.1508 37.8104 28.0872 37.9377 27.9811C38.065 27.875 38.1286 27.7053 38.1286 27.5144C38.1286 27.3023 38.065 27.1325 37.9589 27.0265C37.8528 26.9204 37.6619 26.8568 37.4286 26.8568H36.7073V28.1508Z" fill="white"/>
<path d="M42.5835 28.3629C42.5835 28.7448 42.5199 29.0842 42.3926 29.3812C42.2653 29.6782 42.0744 29.8903 41.8198 30.0388C41.5653 30.1873 41.2895 30.2722 40.9713 30.2722C40.6531 30.2722 40.3773 30.1873 40.1227 30.0388C39.8681 29.8903 39.6772 29.657 39.5499 29.3812C39.4227 29.0842 39.3378 28.766 39.3378 28.3842V28.172C39.3378 27.7902 39.4014 27.4507 39.5499 27.1538C39.6772 26.8568 39.8681 26.6446 40.1227 26.4749C40.3773 26.3264 40.6531 26.2416 40.9713 26.2416C41.2895 26.2416 41.5653 26.3264 41.8198 26.4749C42.0744 26.6234 42.2653 26.8568 42.3926 27.1325C42.5199 27.4295 42.6047 27.7477 42.6047 28.1296V28.3629H42.5835ZM41.9047 28.1508C41.9047 27.7265 41.8198 27.3871 41.6501 27.1538C41.4804 26.9204 41.247 26.8143 40.9501 26.8143C40.6531 26.8143 40.4197 26.9204 40.25 27.1538C40.0803 27.3871 39.9954 27.7053 39.9954 28.1296V28.3629C39.9954 28.7872 40.0803 29.1266 40.25 29.36C40.4197 29.5934 40.6531 29.7206 40.9501 29.7206C41.247 29.7206 41.4804 29.6146 41.6501 29.3812C41.8198 29.1479 41.8835 28.8084 41.8835 28.3842V28.1508H41.9047Z" fill="white"/>
<path d="M43.9413 29.6782H45.7232V30.2298H43.2624V26.3052H43.9413V29.6782Z" fill="white"/>
<path d="M52.151 29.2115C52.151 29.0418 52.0873 28.9145 51.9601 28.8084C51.8328 28.7236 51.6206 28.6175 51.3024 28.5327C50.9842 28.4478 50.7297 28.3417 50.5599 28.2144C50.1993 27.9811 50.0296 27.7053 50.0296 27.3447C50.0296 27.0265 50.1569 26.7719 50.4114 26.5598C50.666 26.3476 51.0054 26.2628 51.4085 26.2628C51.6843 26.2628 51.9176 26.3052 52.1298 26.4113C52.3419 26.5173 52.5116 26.6446 52.6389 26.8355C52.7662 27.0265 52.8298 27.2174 52.8298 27.4507H52.151C52.151 27.2386 52.0873 27.0901 51.9601 26.9628C51.8328 26.8568 51.6419 26.7931 51.4085 26.7931C51.1964 26.7931 51.0054 26.8355 50.8994 26.9416C50.7721 27.0265 50.7084 27.175 50.7084 27.3447C50.7084 27.4932 50.7721 27.5992 50.8994 27.7053C51.0266 27.8114 51.26 27.8962 51.557 27.9811C51.854 28.0659 52.1086 28.172 52.2995 28.2993C52.4904 28.4054 52.6177 28.5539 52.7025 28.7024C52.7874 28.8509 52.8298 29.0206 52.8298 29.2327C52.8298 29.5509 52.7025 29.8267 52.448 30.0176C52.1934 30.2085 51.854 30.3146 51.4297 30.3146C51.1539 30.3146 50.8782 30.2722 50.6448 30.1661C50.4114 30.06 50.2205 29.9116 50.0932 29.7418C49.966 29.5509 49.9023 29.3388 49.9023 29.1054H50.5812C50.5812 29.3176 50.6448 29.5085 50.7933 29.6146C50.9418 29.7418 51.1539 29.8055 51.4297 29.8055C51.6631 29.8055 51.854 29.7631 51.9601 29.657C52.0873 29.4873 52.151 29.36 52.151 29.2115Z" fill="white"/>
<path d="M55.63 29.2964H54.1238L53.8056 30.2086H53.0843L54.5693 26.284H55.1845L56.6695 30.2086H55.9694L55.63 29.2964ZM54.2935 28.7448H55.4178L54.8451 27.1113L54.2935 28.7448Z" fill="white"/>
<path d="M58.2607 29.36L59.2577 26.3052H60.0002L58.6001 30.2298H57.9424L56.5423 26.3052H57.2848L58.2607 29.36Z" fill="white"/>
<path d="M62.7367 28.469H61.1245V29.6782H63.0125V30.2298H60.4456V26.3052H62.9913V26.8568H61.1245V27.9387H62.7367V28.469Z" fill="white"/>
<path d="M0.00725638 21.6806L3.7409 0.254566C3.76211 0.106069 3.88939 0 4.0591 0H10.6566C13.2023 0 15.1327 0.530347 16.4056 1.56983C17.6784 2.60931 18.2724 4.05185 18.1451 5.91867C17.9966 8.14612 16.7238 9.77959 14.2842 10.8191C15.154 11.1161 15.854 11.6888 16.3207 12.5162C16.8086 13.3435 17.0208 14.3406 16.9359 15.4649C16.8086 17.5439 16.0025 19.1561 14.5175 20.3229C13.0326 21.4896 10.996 22.0624 8.42916 22.0624H0.325464C0.113326 22.0412 -0.0351714 21.8715 0.00725638 21.6806ZM6.07442 12.4313L5.03494 18.3924L8.53523 18.4136C9.61714 18.4136 10.5505 18.1379 11.2718 17.6075C12.0143 17.0772 12.4386 16.3347 12.5871 15.4225C12.7356 14.5103 12.6083 13.8102 12.2264 13.3011C11.8446 12.792 11.187 12.5162 10.2536 12.4738L6.07442 12.4313ZM6.60477 9.22803L9.61714 9.24925C10.7415 9.22803 11.6537 8.97347 12.3749 8.46433C13.0962 7.9552 13.5205 7.25514 13.6478 6.36416C13.9023 4.5822 12.9689 3.69121 10.8475 3.69121L7.58061 3.67L6.60477 9.22803Z" fill="white"/>
<path d="M21.2211 22.0412H17.5511C17.3601 22.0412 17.2116 21.8715 17.2329 21.6806L19.9907 5.91866C20.0119 5.77017 20.1392 5.6641 20.3089 5.6641H23.9789C24.1698 5.6641 24.3183 5.83381 24.2971 6.02473L21.5605 21.7866C21.5181 21.9351 21.3696 22.0412 21.2211 22.0412Z" fill="white"/>
<path d="M46.0201 14.2769L44.7049 21.7866C44.6836 21.9351 44.5564 22.0412 44.3866 22.0412H40.5894C40.3984 22.0412 40.2499 21.8715 40.2712 21.6806L44.0048 0.254566C44.026 0.106069 44.1533 0 44.323 0L51.7903 0.0212139C54.1662 0.0212139 56.0543 0.678844 57.412 2.01532C58.7696 3.33058 59.3636 5.07011 59.1939 7.1915C59.0242 9.35531 58.1332 11.0736 56.4998 12.3677C54.8663 13.6617 52.7661 14.2981 50.2205 14.2981L46.0201 14.2769ZM46.6353 10.5857L50.3265 10.6069C51.5145 10.6069 52.5116 10.2887 53.2965 9.67352C54.0814 9.05832 54.5481 8.23098 54.6966 7.17029C54.8451 6.10959 54.6754 5.28225 54.1875 4.64584C53.6995 4.00942 52.9783 3.69121 52.0236 3.64879L47.8445 3.67L46.6353 10.5857Z" fill="white"/>
<path d="M70.8616 22.0412H67.2128C67.0643 22.0412 66.937 21.9351 66.9158 21.7866C66.831 21.426 66.7885 21.0229 66.8097 20.5562C65.5793 21.7866 64.1792 22.3806 62.6306 22.3382C61.1881 22.317 60.0001 21.8503 59.0667 20.9381C58.1121 20.0259 57.6878 18.9016 57.7514 17.5439C57.8151 15.7619 58.5788 14.383 60.0001 13.4284C61.4214 12.4738 63.3519 11.9858 65.7491 11.9858L67.7432 12.007L67.9553 11.0312C68.0189 10.6918 68.0401 10.3736 67.9977 10.0766C67.9553 9.60988 67.7644 9.22803 67.4674 8.95225C67.1492 8.67647 66.7461 8.54919 66.2582 8.52798C65.6006 8.50676 65.0278 8.67647 64.5611 9.01589C64.158 9.3341 63.861 9.75838 63.7125 10.3099C63.6701 10.4372 63.5428 10.5221 63.4155 10.5221L59.7031 10.5433C59.5122 10.5433 59.3637 10.3736 59.3849 10.1827C59.5334 8.78254 60.2547 7.63699 61.5063 6.7248C62.8852 5.74896 64.5611 5.28225 66.5764 5.28225C68.4432 5.32468 69.8858 5.87624 70.9465 6.93694C72.0071 7.99763 72.4314 9.37653 72.2617 11.0524L71.0101 18.9016L70.9252 19.8774C70.904 20.3653 70.9465 20.8108 71.0313 21.1927C71.0525 21.2563 71.0949 21.4048 71.1586 21.5533C71.2222 21.8291 71.0737 22.0412 70.8616 22.0412ZM63.6913 19.0288C64.9217 19.0713 66.0036 18.5409 66.9158 17.4166L67.4462 14.5739L65.9612 14.5527C64.3914 14.5951 63.2458 15.0831 62.5458 15.9953C62.2912 16.3347 62.1427 16.7377 62.0791 17.2257C61.9942 17.7772 62.1215 18.2015 62.4185 18.5197C62.7367 18.8591 63.161 19.0288 63.6913 19.0288Z" fill="white"/>
<path d="M78.6471 15.8043L83.2505 5.83382C83.2929 5.72775 83.4202 5.64289 83.5475 5.64289H87.5781C87.8115 5.64289 87.96 5.89746 87.8539 6.1096L78.4986 24.5232C77.8197 25.9658 77.0136 27.0265 76.0802 27.7053C75.1468 28.3842 74.0861 28.7236 72.8769 28.7236C72.4526 28.7236 71.8587 28.6387 71.095 28.469C70.9465 28.4266 70.8404 28.2993 70.8404 28.1296L71.095 25.3718C71.1162 25.2021 71.2647 25.0748 71.4344 25.096L71.7314 25.1172C73.1315 25.1596 74.1498 24.6505 74.7862 23.5898L75.7196 21.8503L73.0891 6.04595C73.0466 5.85503 73.2163 5.68532 73.4073 5.68532H77.1833C77.353 5.68532 77.4803 5.8126 77.5015 5.9611L78.6471 15.8043Z" fill="white"/>
<path d="M91.7784 1.88804H90.6753V4.87919H89.9328V1.88804H88.8509V1.29405H91.7784V1.88804Z" fill="white"/>
<path d="M93.1785 1.29405L94.1119 3.90335L95.0241 1.29405H96V4.87919H95.2575V3.90335L95.3211 2.20624L94.3453 4.87919H93.8361L92.8603 2.20624L92.9239 3.90335V4.87919H92.1815V1.29405H93.1785Z" fill="white"/>
<path d="M23.3637 20.6835L24.2335 15.6134C24.2547 15.5498 24.2759 15.4861 24.3183 15.4437L30.5128 9.24925H25.7184C25.5275 9.24925 25.379 9.07954 25.4002 8.88861L25.9094 5.89746C25.9306 5.74896 26.0578 5.64289 26.2276 5.64289H38.4467C38.7225 5.64289 38.871 5.98231 38.6801 6.17324L23.894 20.9381C23.6819 21.1714 23.3 20.9805 23.3637 20.6835Z" fill="white"/>
<path d="M41.2044 7.00057L40.3346 12.0707C40.3134 12.1343 40.2922 12.198 40.2498 12.2404L34.0553 18.4348H38.8497C39.0406 18.4348 39.1891 18.6046 39.1679 18.7955L38.6587 21.7866C38.6375 21.9351 38.5102 22.0412 38.3405 22.0412H26.1213C25.8456 22.0412 25.6971 21.7018 25.888 21.5109L40.6741 6.74601C40.8862 6.51266 41.2468 6.70358 41.2044 7.00057Z" fill="white"/>
</svg>
