<svg width="24" height="16" viewBox="0 0 24 16" fill="none" xmlns="http://www.w3.org/2000/svg">
<path d="M24 3.2256V1.8816C24 0.8448 23.1552 0 22.1184 0H1.90081C0.864011 0 0.0192108 0.8448 0.0192108 1.8816V3.2256H24Z" fill="#F1F1F1"/>
<path d="M0 5.72162V13.6896C0 14.7264 0.8448 15.5712 1.8816 15.5712H22.08C23.1168 15.5712 23.9616 14.7264 23.9616 13.6896V5.72162H0ZM22.2144 13.152C22.2144 13.4976 21.9264 13.7856 21.5808 13.7856H16.416C16.0704 13.7856 15.7824 13.4976 15.7824 13.152V11.6544C15.7824 11.3088 16.0704 11.0208 16.416 11.0208H21.5616C21.9072 11.0208 22.1952 11.3088 22.1952 11.6544V13.152H22.2144Z" fill="#F1F1F1"/>
</svg>
