<svg width="19" height="16" viewBox="0 0 19 16" fill="none" xmlns="http://www.w3.org/2000/svg">
<path d="M16.7935 0.206042L1.92617 2.18944C1.29982 2.27297 0.781213 2.69472 0.572704 3.28996C0.364228 3.88526 0.507882 4.53408 0.947649 4.98318L4.42078 8.53021L9.65445 5.50855C9.89528 5.3695 10.2025 5.45072 10.3407 5.68998C10.4788 5.92922 10.3955 6.23593 10.1547 6.37499L4.92101 9.39665L6.25625 14.1779C6.42531 14.7834 6.91536 15.2322 7.53515 15.3493C8.15615 15.4665 8.78011 15.2271 9.16499 14.7274L18.3164 2.84358C18.733 2.30252 18.7809 1.60109 18.4414 1.01302C18.1019 0.424953 17.4705 0.115687 16.7935 0.206042Z" fill="#F1F1F1"/>
</svg>
