<svg width="17" height="20" viewBox="0 0 17 20" fill="none" xmlns="http://www.w3.org/2000/svg">
<path fill-rule="evenodd" clip-rule="evenodd" d="M13.1552 1.12587C12.5501 0.41422 11.6344 0 10.6661 0H3.18744C1.42706 0 0 1.34316 0 3.00004V17C0 18.657 1.42706 20 3.18744 20H13.8126C15.5729 20 17 18.657 17 17V6.70124C17 6.02001 16.7536 5.35911 16.3015 4.8272L13.1552 1.12587ZM11.6874 2.60078L13.7267 4.99996H12.7499C12.1631 4.99996 11.6874 4.55231 11.6874 4V2.60078ZM4.25023 15.0004C4.25023 15.5527 4.72584 16.0003 5.31265 16.0003C5.89946 16.0003 6.37507 15.5527 6.37507 15.0004V11.0002C6.37507 10.4479 5.89946 10.0003 5.31265 10.0003C4.72584 10.0003 4.25023 10.4479 4.25023 11.0002V15.0004ZM8.50009 16.0003C7.91328 16.0003 7.43767 15.5527 7.43767 15.0004V9.0003C7.43767 8.44799 7.91328 8.00017 8.50009 8.00017C9.0869 8.00017 9.56251 8.44799 9.56251 9.0003V15.0004C9.56251 15.5527 9.0869 16.0003 8.50009 16.0003ZM10.6251 15.0004C10.6251 15.5527 11.1007 16.0003 11.6875 16.0003C12.2743 16.0003 12.75 15.5527 12.75 15.0004V11.0002C12.75 10.4479 12.2743 10.0003 11.6875 10.0003C11.1007 10.0003 10.6251 10.4479 10.6251 11.0002V15.0004Z" fill="#F1F1F1"/>
</svg>