<svg width="20" height="20" viewBox="0 0 20 20" fill="none" xmlns="http://www.w3.org/2000/svg">
<path fill-rule="evenodd" clip-rule="evenodd" d="M7.49998 0.833286C7.49998 0.373036 7.87302 0 8.33327 0H11.6667C12.1269 0 12.5 0.373036 12.5 0.833286V2.92704C12.751 3.01562 12.9957 3.11732 13.2334 3.23102L14.714 1.75042C14.8704 1.59417 15.0823 1.50642 15.3033 1.50642C15.5243 1.50642 15.7362 1.59417 15.8926 1.75042L18.2495 4.10742C18.575 4.43289 18.575 4.96053 18.2495 5.28599L16.7689 6.7666C16.8826 7.00432 16.9843 7.24917 17.0729 7.49999H19.1667C19.6269 7.49999 20 7.87302 20 8.33327V11.6667C20 12.127 19.6269 12.5 19.1667 12.5H17.0729C16.9843 12.751 16.8826 12.9957 16.7689 13.2334L18.2495 14.7141C18.575 15.0395 18.575 15.5671 18.2495 15.8926L15.8926 18.2496C15.7362 18.4058 15.5243 18.4937 15.3033 18.4937C15.0823 18.4937 14.8704 18.4058 14.7141 18.2496L13.2334 16.769C12.9957 16.8827 12.7509 16.9844 12.5 17.0729V19.1667C12.5 19.6269 12.1269 20 11.6667 20H8.33327C7.87302 20 7.49998 19.6269 7.49998 19.1667V17.0729C7.24915 16.9844 7.00431 16.8827 6.76659 16.769L5.28599 18.2496C4.96051 18.575 4.43288 18.575 4.10742 18.2496L1.75042 15.8926C1.59417 15.7362 1.50628 15.5243 1.50628 15.3033C1.50628 15.0823 1.59417 14.8704 1.75042 14.7141L3.23102 13.2334C3.11732 12.9957 3.01562 12.751 2.92703 12.5H0.833285C0.373036 12.5 0 12.127 0 11.6667V8.33327C0 7.87302 0.373036 7.49999 0.833285 7.49999H2.92703C3.01562 7.24915 3.11732 7.00431 3.23102 6.7666L1.75042 5.28599C1.42494 4.96051 1.42494 4.43288 1.75042 4.10742L4.10742 1.75042C4.43289 1.42494 4.96052 1.42494 5.28599 1.75042L6.76659 3.23102C7.00431 3.11732 7.24916 3.01562 7.49998 2.92704V0.833286ZM6.6667 10.0001C6.6667 8.15911 8.15902 6.66679 9.99998 6.66679C11.8409 6.66679 13.3333 8.15911 13.3333 10.0001C13.3333 11.841 11.8409 13.3334 9.99998 13.3334C8.15902 13.3334 6.6667 11.841 6.6667 10.0001Z" fill="#F1F1F1"/>
</svg>
